<svg width="173" height="78" viewBox="0 0 173 78" fill="none" xmlns="http://www.w3.org/2000/svg">
<path d="M172.85 62.8796C172.609 73.3464 164.424 77.0463 159.001 77.8336C157.97 77.9833 157.13 77.1317 156.987 76.0992C156.101 69.6748 150.681 69.4537 148.818 69.4537H36.9545C6.99806 69.4537 6.99905 59.9619 6.99999 51.0638L7 50.9148V29.2204C7 8.57778 17.831 7 24.0927 7H145.941C171.157 7 172.85 15.9407 172.85 27.3796C172.85 30.1407 173.188 48.1537 172.85 62.8796Z" fill="#14012C"/>
<path d="M167.85 57.8796C167.588 69.2594 157.936 72.6402 152.652 72.9757C152.355 72.9945 152.112 72.7498 152.101 72.4522C151.831 64.7049 145.803 64.4537 143.818 64.4537H31.9545C1.99806 64.4537 1.99905 54.9619 1.99999 46.0638L2 45.9148V24.2204C2 3.57778 12.831 2 19.0927 2H140.941C166.157 2 167.85 10.9407 167.85 22.3796C167.85 25.1407 168.188 43.1537 167.85 57.8796Z" fill="#885FFA" stroke="#14012C" stroke-width="2.11847"/>
<path d="M23.66 40V28.54H28.92V26.6H16.24V28.54H21.52V40H23.66ZM32.3436 40V35.18C32.3436 33.08 33.1836 31.8 35.5436 31.8C37.6036 31.8 38.5036 32.6 38.5036 34.6V40H40.6436V34.08C40.6436 31.66 39.3036 29.86 36.5636 29.86C34.0236 29.86 32.8036 31.42 32.4636 33.1H32.3436V26.6H30.1836V40H32.3436ZM44.7459 28.9V26.6H42.5859V28.9H44.7459ZM44.7459 40V30.06H42.5859V40H44.7459ZM51.4461 40.2C54.2461 40.2 56.0861 39.1 56.0861 37.24C56.0861 35.6 55.0061 34.8 52.6461 34.5L50.3461 34.18C48.8461 33.98 48.4461 33.7 48.4461 32.92C48.4461 31.98 49.0861 31.58 50.9061 31.58C53.1061 31.58 53.7061 32.2 53.7061 33.38V33.5H55.8461V33.44C55.8461 31.08 54.0061 29.86 50.9661 29.86C47.9061 29.86 46.3261 31.1 46.3261 32.84C46.3261 34.5 47.4661 35.3 49.3461 35.54L52.0661 35.9C53.4861 36.1 53.9661 36.36 53.9661 37.18C53.9661 38.06 53.3861 38.46 51.4461 38.46C49.3661 38.46 48.5861 38.04 48.5861 36.74V36.58H46.4261V36.64C46.4261 38.94 48.2461 40.2 51.4461 40.2ZM63.2225 40V26.6H61.0625V40H63.2225ZM70.3027 40.2C73.6227 40.2 75.8427 38.1 75.8427 35.04C75.8427 31.94 73.6227 29.86 70.3027 29.86C67.0027 29.86 64.7827 31.94 64.7827 35.04C64.7827 38.1 67.0027 40.2 70.3027 40.2ZM70.3027 38.28C67.9027 38.28 66.9027 37.14 66.9027 35.04C66.9027 32.92 67.9027 31.76 70.3027 31.76C72.7227 31.76 73.7227 32.92 73.7227 35.04C73.7227 37.14 72.7227 38.28 70.3027 38.28ZM82.4902 40.2C85.8102 40.2 88.0302 38.1 88.0302 35.04C88.0302 31.94 85.8102 29.86 82.4902 29.86C79.1902 29.86 76.9702 31.94 76.9702 35.04C76.9702 38.1 79.1902 40.2 82.4902 40.2ZM82.4902 38.28C80.0902 38.28 79.0902 37.14 79.0902 35.04C79.0902 32.92 80.0902 31.76 82.4902 31.76C84.9102 31.76 85.9102 32.92 85.9102 35.04C85.9102 37.14 84.9102 38.28 82.4902 38.28ZM91.7577 40V35.94H94.5977L97.5377 40H100.078L96.3577 34.84L100.098 30.06H97.5777L94.5977 34H91.7577V26.6H89.5977V40H91.7577ZM105.86 40.2C108.66 40.2 110.5 39.1 110.5 37.24C110.5 35.6 109.42 34.8 107.06 34.5L104.76 34.18C103.26 33.98 102.86 33.7 102.86 32.92C102.86 31.98 103.5 31.58 105.32 31.58C107.52 31.58 108.12 32.2 108.12 33.38V33.5H110.26V33.44C110.26 31.08 108.42 29.86 105.38 29.86C102.32 29.86 100.74 31.1 100.74 32.84C100.74 34.5 101.88 35.3 103.76 35.54L106.48 35.9C107.9 36.1 108.38 36.36 108.38 37.18C108.38 38.06 107.8 38.46 105.86 38.46C103.78 38.46 103 38.04 103 36.74V36.58H100.84V36.64C100.84 38.94 102.66 40.2 105.86 40.2ZM120.497 40.2C123.477 40.2 125.657 38.52 125.657 36.04V35.82H123.517V35.96C123.517 37.5 122.397 38.26 120.457 38.26C118.217 38.26 117.217 37.18 117.217 35.04C117.217 32.86 118.217 31.8 120.457 31.8C122.397 31.8 123.517 32.56 123.517 34.1V34.22H125.657V34.02C125.657 31.54 123.477 29.86 120.497 29.86C117.217 29.86 115.077 31.94 115.077 35.04C115.077 38.1 117.217 40.2 120.497 40.2ZM132.334 40.2C135.654 40.2 137.874 38.1 137.874 35.04C137.874 31.94 135.654 29.86 132.334 29.86C129.034 29.86 126.814 31.94 126.814 35.04C126.814 38.1 129.034 40.2 132.334 40.2ZM132.334 38.28C129.934 38.28 128.934 37.14 128.934 35.04C128.934 32.92 129.934 31.76 132.334 31.76C134.754 31.76 135.754 32.92 135.754 35.04C135.754 37.14 134.754 38.28 132.334 38.28ZM144.521 40.2C147.841 40.2 150.061 38.1 150.061 35.04C150.061 31.94 147.841 29.86 144.521 29.86C141.221 29.86 139.001 31.94 139.001 35.04C139.001 38.1 141.221 40.2 144.521 40.2ZM144.521 38.28C142.121 38.28 141.121 37.14 141.121 35.04C141.121 32.92 142.121 31.76 144.521 31.76C146.941 31.76 147.941 32.92 147.941 35.04C147.941 37.14 146.941 38.28 144.521 38.28ZM153.789 40V26.6H151.629V40H153.789Z" fill="#FFD4B6"/>
</svg>
