<svg xmlns="http://www.w3.org/2000/svg" width="32" height="32" viewBox="0 0 32 32" fill="none">
    <path d="M26.2554 26.2532C28.4033 24.1053 25.5541 17.7736 19.8914 12.111C14.2288 6.44844 7.8972 3.5992 5.74932 5.74708C3.60143 7.89497 6.45067 14.2266 12.1133 19.8892C17.7759 25.5518 24.1075 28.4011 26.2554 26.2532Z" stroke="white" stroke-width="2" stroke-linecap="round" stroke-linejoin="round"/>
    <path d="M19.8914 19.8888C25.5541 14.2262 28.4033 7.89458 26.2554 5.7467C24.1075 3.59882 17.7759 6.44806 12.1133 12.1107C6.45067 17.7733 3.60143 24.1049 5.74932 26.2528C7.8972 28.4007 14.2288 25.5514 19.8914 19.8888Z" stroke="white" stroke-width="2" stroke-linecap="round" stroke-linejoin="round"/>
    <path d="M16 17.5C16.8284 17.5 17.5 16.8284 17.5 16C17.5 15.1716 16.8284 14.5 16 14.5C15.1716 14.5 14.5 15.1716 14.5 16C14.5 16.8284 15.1716 17.5 16 17.5Z" fill="white"/>
  </svg>