<svg width="54" height="55" viewBox="0 0 54 55" fill="none" xmlns="http://www.w3.org/2000/svg">
<path d="M0 27.1172C0 42.0289 12.0883 54.1172 27 54.1172C41.9117 54.1172 54 42.0289 54 27.1172C54 12.2055 41.9117 0.117188 27 0.117188C12.0883 0.117188 0 12.2055 0 27.1172Z" fill="#04F7B0"/>
<path d="M28.25 12.1172L43.25 27.1172L28.25 42.1172V34.6172H14.5C14.1685 34.6172 13.8505 34.4855 13.6161 34.2511C13.3817 34.0167 13.25 33.6987 13.25 33.3672V20.8672C13.25 20.5357 13.3817 20.2177 13.6161 19.9833C13.8505 19.7489 14.1685 19.6172 14.5 19.6172H28.25V12.1172Z" fill="black"/>
</svg>
