<svg width="54" height="55" viewBox="0 0 54 55" fill="none" xmlns="http://www.w3.org/2000/svg">
<path d="M54 27.1172C54 42.0289 41.9117 54.1172 27 54.1172C12.0883 54.1172 0 42.0289 0 27.1172C0 12.2055 12.0883 0.117188 27 0.117188C41.9117 0.117188 54 12.2055 54 27.1172Z" fill="#212127"/>
<path d="M25.75 12.1172L10.75 27.1172L25.75 42.1172V34.6172H39.5C39.8315 34.6172 40.1495 34.4855 40.3839 34.2511C40.6183 34.0167 40.75 33.6987 40.75 33.3672V20.8672C40.75 20.5357 40.6183 20.2177 40.3839 19.9833C40.1495 19.7489 39.8315 19.6172 39.5 19.6172H25.75V12.1172Z" fill="#212127" stroke="white" stroke-width="2" stroke-linecap="round" stroke-linejoin="round"/>
</svg>
