<svg xmlns="http://www.w3.org/2000/svg" width="107" height="46" viewBox="0 0 107 46" fill="none">
    <g clip-path="url(#clip0_23_18)">
      <path fill-rule="evenodd" clip-rule="evenodd" d="M49.3993 0.0990238C48.0536 0.654194 47.6375 1.52314 47.2752 4.53244C47.0105 6.72797 46.7968 7.32992 46.3408 7.16266C46.0155 7.04307 43.3426 6.88375 40.401 6.80829C35.2355 6.6759 35.0267 6.70591 34.2938 7.68738C33.5658 8.66224 33.2979 8.70373 27.7327 8.70373C22.5526 8.70373 21.9309 8.62385 21.9309 7.95658C21.9313 6.6759 20.2966 5.8352 17.8053 5.8352C15.7171 5.8352 15.3852 5.96936 14.4317 7.19797C13.8499 7.94732 12.9 9.43674 12.3211 10.5078C11.7421 11.5784 11.2096 12.4549 11.1383 12.4549C11.0667 12.4549 10.423 11.4121 9.70761 10.138C7.50171 6.20899 7.04041 5.8352 4.39805 5.8352C2.71451 5.8352 1.80576 6.06821 1.11036 6.6781L0.149097 7.52145L0.0289891 20.4691C-0.0369682 27.5906 0.0135177 33.8691 0.140954 34.4212C0.609169 36.445 1.77564 37.1683 4.57271 37.1683C6.5779 37.1683 7.40684 36.9614 8.23701 36.2535C9.22352 35.4128 9.30983 35.0761 9.30983 32.0708V28.8024L10.2764 29.2795C10.9775 29.6259 11.4799 29.6193 12.1085 29.2547C12.9554 28.7631 12.9741 28.824 12.9741 32.0456C12.9741 35.1123 13.0511 35.4049 14.0938 36.2954C15.053 37.1145 15.6242 37.2292 18.0822 37.0955C20.9244 36.9411 20.9562 36.9517 21.5429 38.2677L22.1349 39.5956L27.6948 39.7182C33.0561 39.8361 33.2812 39.8047 34.0056 38.8356C34.7221 37.8762 34.9729 37.8369 39.5085 37.9777C43.367 38.0973 44.5388 37.9821 45.7411 37.3634C48.0321 36.1851 48.3651 36.9234 47.7642 41.848C47.5911 43.2651 47.6628 44.4518 47.9567 45.0475L48.4241 45.9946H67.9031C90.1776 45.9946 88.5307 46.3185 88.4541 41.9526C88.4297 40.5351 88.5213 39.3762 88.6577 39.3776C88.7945 39.3793 89.2077 39.9544 89.5754 40.6556C89.9435 41.3568 91.1343 42.4972 92.2218 43.19C93.9856 44.3136 94.5808 44.45 97.7252 44.45C100.996 44.45 101.379 44.3529 103.018 43.1066C103.99 42.3674 105.243 40.878 105.803 39.7968C106.679 38.1044 106.821 37.2765 106.821 33.8585C106.821 31.5191 106.595 29.3077 106.272 28.478C105.797 27.2574 105.811 26.9348 106.374 26.0627C107.197 24.79 107.21 21.6774 106.405 18.74C105.577 15.7171 103.303 13.5705 100.187 12.8693C98.0155 12.3807 96.2298 12.5626 92.7743 13.6252C91.8049 13.9236 91.7903 13.9019 92.469 13.1649C93.1847 12.3882 93.3622 10.6923 93.2096 6.09248C93.0707 1.91944 92.6221 1.71996 83.8542 1.93885C77.2235 2.10479 76.8957 2.28308 76.8957 5.72487C76.8957 8.09472 76.3664 7.85288 75.6722 5.16573C75.386 4.05671 74.7704 2.86031 74.3046 2.50638C73.091 1.58492 68.0367 1.63038 67.0774 2.57125C66.6801 2.96093 65.854 4.95037 65.2408 6.99232C64.6277 9.03471 64.0072 10.5528 63.8614 10.3666C63.4636 9.85643 62.7357 6.77696 62.4254 4.29061C61.9132 0.184197 60.6332 -0.808755 57.6964 0.623744C55.7421 1.57698 53.9161 1.52093 51.6528 0.438393C50.7762 0.0191464 49.909 -0.111482 49.3993 0.0990238ZM51.9887 2.56508C53.0709 3.3868 56.3728 3.24117 58.4667 2.27955C59.3104 1.89207 59.9219 1.82764 60.1666 2.09993C60.6608 2.65025 61.5615 8.88466 61.5989 12.0136L61.6278 14.4408H59.0074H56.3867L56.0235 12.8962C55.5194 10.751 54.9877 10.2744 54.2719 11.3256C53.4288 12.5634 53.4503 21.2198 54.2992 22.4104C54.9038 23.2582 54.9161 23.2582 55.5207 22.4104C55.8566 21.9391 56.1314 21.1024 56.1314 20.5503C56.1314 19.297 57.2323 18.6332 59.312 18.6332C61.5566 18.6332 62.0028 19.3822 61.6901 22.6254C61.2512 27.1766 59.2847 29.8055 55.9087 30.354C52.1682 30.9622 49.3496 28.8333 48.1432 24.489C47.3631 21.6796 47.3912 11.95 48.1876 9.10488C48.521 7.91334 48.7959 6.30608 48.7983 5.5329C48.8089 2.23277 50.0409 1.08624 51.9887 2.56508ZM73.5282 4.18028C73.9838 4.81444 79.3386 27.4264 79.3386 28.7168C79.3386 29.7803 78.5809 30.1091 76.1498 30.1007C73.8132 30.0924 73.4093 29.8236 73.0527 28.0416C72.6981 26.2684 71.9518 25.5919 70.5487 25.7728C69.434 25.9162 69.2259 26.1704 68.2614 28.5628C67.7651 29.794 67.5579 29.896 65.2998 30.0222C63.4832 30.1232 62.7572 29.9873 62.4165 29.482C62.0651 28.9613 62.605 26.0619 64.784 16.7696C66.3364 10.149 67.7956 4.4839 68.0261 4.18028C68.2728 3.85547 69.4092 3.62864 70.7886 3.62864C72.1802 3.62864 73.2925 3.85282 73.5282 4.18028ZM91.4682 7.25666C91.5973 10.9659 91.7243 10.7691 88.9065 11.2298C88.1296 11.3565 88.0828 11.7876 87.8886 20.6249L87.685 29.8867H85.0386H82.3922L82.1886 20.6249C81.9944 11.7876 81.9476 11.3565 81.1707 11.2298C78.4197 10.7801 78.5243 10.9297 78.5243 7.4451C78.5243 5.66971 78.6509 4.07966 78.806 3.91196C78.9607 3.74382 81.8466 3.66129 85.2185 3.72793L91.3493 3.84929L91.4682 7.25666ZM7.95119 10.6896C8.88355 12.2673 10.0085 14.052 10.4515 14.6557L11.2568 15.7532L13.6423 11.6676L16.0277 7.58147L18.0634 7.70151L20.0991 7.8211L20.2074 20.5887C20.2913 30.5094 20.2005 33.4357 19.8003 33.7111C19.0043 34.2583 15.6389 34.1432 15.0913 33.5496C14.7668 33.1979 14.6027 31.2804 14.6027 27.8386C14.6027 24.9886 14.4582 22.56 14.2811 22.4418C14.1044 22.3231 13.4464 23.1059 12.8186 24.181C12.1912 25.256 11.4201 26.1356 11.1053 26.1356C10.7906 26.1356 10.017 25.2375 9.38719 24.1404C8.75693 23.0428 8.11527 22.2816 7.96137 22.4488C7.80747 22.6156 7.68126 25.0623 7.68126 27.8862C7.68126 31.2905 7.51677 33.1983 7.19269 33.5496C6.68172 34.1034 3.734 34.2725 2.62535 33.8113C2.0586 33.5756 1.98124 32.0191 1.98124 20.8663C1.98124 13.8936 2.11194 8.04749 2.27154 7.8745C2.43114 7.70151 3.39281 7.61854 4.40904 7.69047C6.19681 7.81669 6.31081 7.91378 7.95119 10.6896ZM45.3421 12.0136V15.3234L44.1206 15.4443C41.5267 15.7016 41.0084 15.9713 41.1424 16.9938C41.2421 17.7546 41.5862 18.0039 42.692 18.1174C44.4826 18.3018 44.7175 18.7206 44.7252 21.7445C44.7322 24.579 44.2823 25.2529 42.3821 25.2529C41.1925 25.2529 41.0276 25.3849 41.1403 26.2459C41.2511 27.0883 41.5796 27.2724 43.3063 27.4595L45.3421 27.6801L45.4634 30.6987C45.5375 32.5443 45.3995 33.9591 45.108 34.3395C44.7517 34.8051 43.5193 34.9618 40.2173 34.9618C36.2697 34.9618 35.7583 34.8718 35.3813 34.1083C34.7413 32.8117 34.8141 9.70021 35.4607 8.9994C35.8129 8.61767 37.3498 8.49322 40.6518 8.58016L45.3421 8.70373V12.0136ZM32.6917 10.9416C33.4759 11.7916 33.565 15.9245 32.8224 16.9836C32.515 17.4218 31.5875 17.7612 30.4813 17.8402C28.9655 17.9488 28.6492 18.1226 28.6492 18.8477C28.6492 19.3857 28.9639 19.7762 29.4635 19.8579C32.2699 20.3182 32.1555 20.1505 32.0256 23.6112L31.9063 26.7975L30.4145 26.9321C27.7555 27.1722 27.9407 29.309 30.6311 29.4282C32.741 29.5213 33.3313 30.2905 33.3313 32.9454C33.3313 36.6176 33.0817 36.7787 27.6264 36.6322L22.9492 36.5064L22.8409 23.9824C22.7643 15.1111 22.8677 11.2823 23.1963 10.8534C23.9039 9.92925 31.8253 10.0029 32.6917 10.9416ZM101.892 15.4686C103.573 16.5202 104.615 18.2175 105.02 20.5662C105.549 23.6382 105.316 23.929 102.321 23.929C99.9099 23.929 99.7051 23.8496 99.206 22.7207C98.5456 21.2273 97.4508 20.9382 96.8747 22.105C96.1801 23.512 96.7713 24.2798 98.9352 24.7829C101.743 25.4356 103.147 26.3134 104.083 28.0005C105.654 30.8307 105.558 35.9481 103.889 38.434C102.757 40.1194 99.8635 41.5815 97.66 41.5815C95.2314 41.5815 92.4124 40.0298 91.4132 38.1436C90.9625 37.2919 90.6222 35.7411 90.59 34.3925L90.535 32.0933H93.1762C95.6687 32.0933 95.8479 32.1625 96.3649 33.3329C97.1283 35.0593 98.6779 34.8506 98.6779 33.0209C98.6779 31.8254 98.5102 31.6925 96.106 30.9789C94.5824 30.527 93.065 29.7287 92.3831 29.0208C89.3763 25.8986 89.847 18.6112 93.2315 15.8768C95.3923 14.1314 99.4486 13.9403 101.892 15.4686ZM69.9958 17.199C69.3611 19.6761 69.4417 19.9572 70.7886 19.9572C71.4603 19.9572 72.01 19.8464 72.01 19.7114C72.01 18.7912 71.0353 15.5441 70.7592 15.5441C70.5724 15.5441 70.2287 16.289 69.9958 17.199ZM86.3936 33.2221C86.8923 33.994 86.8996 34.4216 86.4408 36.0743C86.063 37.4345 86.0161 38.4526 86.284 39.4658C86.8549 41.623 86.7523 43.217 86.0231 43.5202C85.6688 43.6675 77.4466 43.788 67.7517 43.788C47.7153 43.788 48.7906 43.9915 49.5951 40.3568C49.9302 38.8427 49.9452 37.6653 49.6476 36.2654C49.1081 33.7279 49.1029 33.817 49.8496 33.0072C50.4118 32.3982 52.6377 32.3139 68.1482 32.3139C85.5109 32.3139 85.8166 32.3289 86.3936 33.2221ZM53.6885 38.051C53.6885 40.5029 53.8147 41.1402 54.2992 41.1402C54.7117 41.1402 54.9099 40.6927 54.9099 39.7624C54.9099 38.5872 54.9999 38.4654 55.5207 38.9336C55.9425 39.3131 56.1314 39.3299 56.1314 38.9874C56.1314 38.7151 56.3101 38.4923 56.5283 38.4923C56.7523 38.4923 56.8186 39.0695 56.681 39.8162C56.4709 40.9548 56.5577 41.1402 57.3019 41.1402C58.0946 41.1402 58.1671 40.9018 58.1671 38.2977C58.1671 35.0862 57.6207 34.3042 56.4856 35.8912C55.8435 36.7888 55.6697 36.8484 55.3264 36.2857C55.1041 35.9216 54.9197 35.4746 54.9161 35.2928C54.9128 35.111 54.6351 34.9618 54.2992 34.9618C53.8147 34.9618 53.6885 35.599 53.6885 38.051ZM58.8458 35.2561C58.6964 35.4177 58.5742 36.8078 58.5742 38.3453V41.1402H59.7957C61.0456 41.1402 61.5171 40.1428 60.5082 39.6322C60.101 39.4265 60.101 39.3233 60.5082 39.1176C60.7883 38.976 61.0171 38.5951 61.0171 38.2716C61.0171 37.9481 60.7883 37.5673 60.5082 37.4256C60.101 37.22 60.101 37.1167 60.5082 36.9111C60.7883 36.7694 61.0171 36.2729 61.0171 35.8078C61.0171 35.2155 60.7321 34.9618 60.0672 34.9618C59.5445 34.9618 58.9948 35.0942 58.8458 35.2561ZM61.8314 38.051V41.1402H63.0528C63.8671 41.1402 64.2743 40.9195 64.2743 40.4782C64.2743 40.1141 63.9994 39.8162 63.6635 39.8162C62.9246 39.8162 62.8509 39.0867 63.5618 38.8065C63.9453 38.6551 63.9599 38.4023 63.6204 37.7787C63.2706 37.1366 63.3073 36.8431 63.7845 36.4653C64.6049 35.8148 64.0609 34.9618 62.8252 34.9618C61.866 34.9618 61.8314 35.0699 61.8314 38.051ZM64.6814 35.8444C64.6814 36.3299 64.8646 36.727 65.0885 36.727C65.3125 36.727 65.4957 37.72 65.4957 38.9336C65.4957 40.8458 65.6044 41.1402 66.31 41.1402C67.0111 41.1402 67.1243 40.8458 67.1243 39.0219C67.1243 37.8568 67.3282 36.6825 67.5774 36.4124C68.2968 35.6326 67.6051 34.9618 66.0824 34.9618C64.953 34.9618 64.6814 35.1326 64.6814 35.8444ZM68.8343 35.4914C68.112 36.2742 68.2178 40.0559 68.9853 40.8882C69.7426 41.7086 69.7967 41.7156 70.8154 41.1247C71.429 40.7686 71.6028 40.1918 71.6028 38.513C71.6028 37.3277 71.4917 36.0439 71.3557 35.6599C71.0646 34.8373 69.5321 34.735 68.8343 35.4914ZM72.4171 38.051C72.4171 40.5029 72.5433 41.1402 73.0278 41.1402C73.3906 41.1402 73.6386 40.735 73.6386 40.1415C73.6386 39.5294 73.9928 38.9742 74.5546 38.7072C75.6002 38.2103 75.9719 36.5443 75.2484 35.5995C74.9801 35.2486 74.233 34.9618 73.5889 34.9618H72.4171V38.051ZM76.4548 35.1441C76.3615 35.2442 76.3465 36.6344 76.4214 38.2332C76.522 40.3754 76.7097 41.1402 77.1339 41.1402C77.5756 41.1402 77.71 40.4199 77.71 38.051C77.71 35.7707 77.5679 34.9618 77.1673 34.9618C76.8684 34.9618 76.548 35.0439 76.4548 35.1441ZM79.3671 36.6132C78.4294 40.3864 78.3822 41.1402 79.0841 41.1402C79.4481 41.1402 79.7457 40.9416 79.7457 40.6988C79.7457 40.4561 80.0205 40.2575 80.3564 40.2575C80.6923 40.2575 80.9672 40.4561 80.9672 40.6988C80.9672 40.9416 81.3336 41.1402 81.7814 41.1402C82.2293 41.1402 82.5892 41.0907 82.5815 41.0298C82.5737 40.9689 82.2346 39.6287 81.8279 38.051C80.9346 34.5862 80.0055 34.043 79.3671 36.6132ZM70.3814 38.2977C70.3814 39.2324 70.2165 39.758 69.9743 39.5956C69.7503 39.4455 69.5671 38.739 69.5671 38.0249C69.5671 37.3109 69.7503 36.727 69.9743 36.727C70.1982 36.727 70.3814 37.434 70.3814 38.2977ZM74.4528 37.1683C74.4528 37.4111 74.2696 37.6097 74.0457 37.6097C73.8218 37.6097 73.6386 37.4111 73.6386 37.1683C73.6386 36.9256 73.8218 36.727 74.0457 36.727C74.2696 36.727 74.4528 36.9256 74.4528 37.1683ZM80.7636 38.4923C80.902 38.735 80.821 38.9336 80.584 38.9336C80.3471 38.9336 80.1529 38.735 80.1529 38.4923C80.1529 38.2496 80.2335 38.051 80.3324 38.051C80.4313 38.051 80.6251 38.2496 80.7636 38.4923Z" fill="#140101"/>
    </g>
    <defs>
      <clipPath id="clip0_23_18">
        <rect width="107" height="46" fill="white"/>
      </clipPath>
    </defs>
  </svg>