<svg xmlns="http://www.w3.org/2000/svg" width="16" height="16" viewBox="0 0 16 16" fill="none">
    <path d="M12.9026 2.50482H9.86511C9.53456 2.50482 9.2666 2.77278 9.2666 3.10333V6.13853C9.2666 6.46908 9.53456 6.73704 9.86511 6.73704H12.9026C13.2331 6.73704 13.5011 6.46908 13.5011 6.13853V3.10333C13.5011 2.77278 13.2331 2.50482 12.9026 2.50482Z" stroke="white" stroke-width="1.17" stroke-linecap="round" stroke-linejoin="round"/>
    <path d="M12.9026 9.27673H9.86511C9.53456 9.27673 9.2666 9.5447 9.2666 9.87524V12.9104C9.2666 13.241 9.53456 13.509 9.86511 13.509H12.9026C13.2331 13.509 13.5011 13.241 13.5011 12.9104V9.87524C13.5011 9.5447 13.2331 9.27673 12.9026 9.27673Z" stroke="white" stroke-width="1.17" stroke-linecap="round" stroke-linejoin="round"/>
    <path d="M6.13595 2.5H3.09851C2.76796 2.5 2.5 2.76796 2.5 3.09851V6.13371C2.5 6.46426 2.76796 6.73222 3.09851 6.73222H6.13595C6.4665 6.73222 6.73446 6.46426 6.73446 6.13371V3.09851C6.73446 2.76796 6.4665 2.5 6.13595 2.5Z" stroke="white" stroke-width="1.17" stroke-linecap="round" stroke-linejoin="round"/>
    <path d="M6.13595 9.27197H3.09851C2.76796 9.27197 2.5 9.53993 2.5 9.87048V12.9057C2.5 13.2362 2.76796 13.5042 3.09851 13.5042H6.13595C6.4665 13.5042 6.73446 13.2362 6.73446 12.9057V9.87048C6.73446 9.53993 6.4665 9.27197 6.13595 9.27197Z" stroke="white" stroke-width="1.17" stroke-linecap="round" stroke-linejoin="round"/>
  </svg>