<svg xmlns="http://www.w3.org/2000/svg" width="27" height="24" viewBox="0 0 27 24" fill="none">
    <path d="M19.5 8.58982e-08C18.3357 8.58982e-08 17.1873 0.271088 16.1459 0.791796C15.1045 1.3125 14.1986 2.06853 13.5 3C12.5555 1.74071 11.2388 0.8105 9.73626 0.341148C8.23374 -0.128203 6.62163 -0.112905 5.12829 0.384875C3.63495 0.882655 2.33609 1.83768 1.41568 3.11467C0.49528 4.39166 0 5.92588 0 7.5C0 16.4875 12.4875 23.575 13.0125 23.875C13.1613 23.9586 13.3294 24.0017 13.5 24C13.6708 24.0029 13.8392 23.9597 13.9875 23.875C16.2871 22.5306 18.444 20.9559 20.425 19.175C24.7875 15.25 27 11.325 27 7.5C27 5.51088 26.2098 3.60322 24.8033 2.1967C23.3968 0.790176 21.4891 8.58982e-08 19.5 8.58982e-08Z" fill="#FF409D"/>
  </svg>